<svg width="32" height="32" viewBox="0 0 32 32" fill="none" xmlns="http://www.w3.org/2000/svg">
<path d="M16 2C12.287 2 8.72601 3.475 6.10051 6.1005C3.475 8.72601 2 12.287 2 16C2 19.713 3.475 23.274 6.1005 25.8995C8.72601 28.525 12.287 30 16 30L16 16L16 2Z" fill="black"/>
<path d="M26.6095 6.37321C27.1071 5.89477 27.1227 5.10347 26.6443 4.60579C26.1658 4.10811 25.3745 4.09252 24.8769 4.57096L26.6095 6.37321ZM15.8663 16.7012L26.6095 6.37321L24.8769 4.57096L14.1337 14.8989L15.8663 16.7012Z" fill="black"/>
<path d="M24.6368 27.6095C25.1152 28.1071 25.9065 28.1227 26.4042 27.6443C26.9019 27.1658 26.9175 26.3745 26.439 25.8769L24.6368 27.6095ZM14.3088 16.8663L24.6368 27.6095L26.439 25.8769L16.1111 15.1337L14.3088 16.8663Z" fill="black"/>
</svg>
